<svg width="640" height="721" viewBox="0 0 640 721" fill="none" xmlns="http://www.w3.org/2000/svg">
<g clip-path="url(#clip0_2_17)">
<path fill-rule="evenodd" clip-rule="evenodd" d="M302.397 674.25C202.564 675.515 91.2867 654.212 37.4177 570.228C-14.776 488.857 30.0507 387.604 59.4919 295.553C87.324 208.533 114.438 114.636 196.211 73.7442C283.906 29.8911 390.308 39.0039 475.522 87.5112C559.393 135.254 613.236 222.448 625.479 318.1C637.118 409.031 598.118 495.982 536.501 563.904C475.542 631.103 393.173 673.1 302.397 674.25Z" fill="#A5DEFF"/>
<g clip-path="url(#clip1_2_17)">
<ellipse cx="155.453" cy="179.105" rx="13.0738" ry="20.5445" transform="rotate(-5.63119 155.453 179.105)" fill="#0D070C"/>
<ellipse cx="13.0738" cy="20.5445" rx="13.0738" ry="20.5445" transform="matrix(-0.910908 0.412609 0.412609 0.910908 291.633 115.726)" fill="#0D070C"/>
<path fill-rule="evenodd" clip-rule="evenodd" d="M203.969 89.3393C179.094 96.3269 133.951 120.282 152.382 160.202C164.737 186.963 158.278 199.024 151.296 212.061C145.258 223.333 138.83 235.336 143.837 258.204C148.384 278.974 157.842 291.826 167.282 304.653C180.253 322.28 193.191 339.861 193.306 377.881C193.465 430.431 232.094 569.545 251.389 632.534L342.944 608.001L203.969 89.3393ZM204.211 90.2414C229.247 83.8551 280.32 82.0295 284.318 125.817C286.986 155.024 302.398 163.473 318.519 172.311C332.609 180.034 347.241 188.055 354.379 210.49C361.058 231.479 356.324 246.967 351.579 262.493C345.449 282.551 339.299 302.671 357.716 334.794C383.853 380.384 419.957 520.175 434.741 584.371L343.186 608.903L204.211 90.2414Z" fill="white"/>
<ellipse cx="31.5961" cy="44.505" rx="31.5961" ry="44.505" transform="matrix(-0.761754 0.647867 0.647867 0.761754 172.462 218.668)" fill="url(#paint0_radial_2_17)"/>
<ellipse cx="31.5961" cy="44.505" rx="31.5961" ry="44.505" transform="matrix(-0.952397 -0.30486 -0.30486 0.952397 368.67 203.039)" fill="url(#paint1_radial_2_17)"/>
<path d="M407.705 477.832C349.172 524.231 259.572 537.157 222.692 531.628L228.95 553.252C313.794 571.362 386.963 524.429 413.884 499.278L407.705 477.832Z" fill="#005BBB"/>
<path d="M413.884 498.551C344.714 557.319 265.684 558.043 228.697 552.943L233.96 569.793C319.154 586.914 393.646 548.002 420.063 522.541L413.884 498.551Z" fill="#FFD500"/>
<ellipse opacity="0.5" cx="285.679" cy="133.453" rx="5.86084" ry="9.20989" transform="rotate(9.05007 285.679 133.453)" fill="white"/>
<ellipse opacity="0.5" cx="152.643" cy="171.255" rx="5.86084" ry="9.20989" transform="rotate(9.05007 152.643 171.255)" fill="white"/>
<path d="M332.873 568.081C172.646 599.273 207 816.428 244.205 921.107C431.599 982.407 781.303 1044.82 680.971 804.076C580.639 563.331 448.764 535.272 395.368 551.335L332.873 568.081Z" fill="white"/>
<path d="M406.251 474.197C454.212 468.714 532.887 483.657 465.539 578.302C398.687 672.25 385.745 731.323 421.636 719.7C421.895 719.604 422.164 719.513 422.443 719.43C422.171 719.524 421.902 719.614 421.636 719.7C411.659 723.428 416.222 736.881 411.068 742.338C371.118 748.69 370.374 694.995 459.602 577.202C481.076 545.884 495.42 484.903 410.756 488.187L406.251 474.197Z" fill="#FFD500"/>
<path d="M399.839 453.945C448.727 442.778 502.059 438.389 447.722 539.571C393.942 639.716 450.99 632.224 487.256 615.581C487.599 615.403 487.972 615.23 488.376 615.061C488.005 615.235 487.631 615.409 487.256 615.581C478.326 620.194 489.142 627.522 484.743 633.437C444.315 644.493 379.042 641.124 441.377 539.205C458.515 505.821 491.059 452.05 403.706 465.474L399.839 453.945Z" fill="#005BBB"/>
<path d="M180.679 206.277C160.97 144.269 218.386 117.651 218.339 118.495C283.241 118.495 292.296 174.069 292.296 182.653C292.296 206.277 334.24 215.921 329.422 241.83C324.604 267.739 337.571 315.539 337.493 351.331C337.431 379.964 326.629 387.757 321.236 388.074C316.92 389.366 314.05 389.764 304.999 392.425C269.151 402.963 254.216 356.243 208.594 310.46C162.973 264.677 205.314 283.786 180.679 206.277Z" fill="#FF6B0A"/>
<path d="M298.836 369.423C269.295 374.632 242.805 313.056 233.253 281.617C249.946 272.955 286.936 257.178 301.356 263.369C319.381 271.107 335.763 362.913 298.836 369.423Z" fill="#1F0C02"/>
<path d="M302.524 359.734C322.052 351.795 303.827 309.273 292.273 289.005L253.035 299.519C261.395 322.899 282.995 367.674 302.524 359.734Z" fill="#724B3B"/>
<path d="M296.046 344.505C299.418 340.405 281.596 298.271 272.264 277.717L263.891 280.948C273.204 303.842 292.674 348.604 296.046 344.505Z" fill="#6B3B28"/>
<path d="M215.001 260.404C223.367 213.691 205.838 193.735 196.028 189.596C215.605 141.425 256.803 155.426 274.955 168.447C262.83 215.201 271.267 178.136 302.948 236.839C328.293 283.801 299.757 309.719 282.321 316.808C256.395 317.471 206.636 307.118 215.001 260.404Z" fill="#ED5E00"/>
<path d="M311.021 257.11C248.016 206.705 226.23 261.784 223.212 295.624C230.806 307.124 253.49 327.439 283.482 316.696C313.474 305.953 314.338 272.496 311.021 257.11Z" fill="#FF8E3D"/>
<path d="M257.359 263.013C255.42 257.804 250.962 248.401 248.635 252.472C246.309 256.544 253.482 261.196 257.359 263.013Z" fill="#FD7411"/>
<path d="M267.531 260.307C265.757 255.039 263.301 244.927 267.671 246.625C272.042 248.323 269.399 256.454 267.531 260.307Z" fill="#FD7411"/>
<path d="M227.918 42.0158L244.275 86.7243C225.664 117.548 176.909 121.134 154.858 119.074L138.864 73.2754L227.918 42.0158Z" fill="#373500"/>
<path d="M244.275 86.7241C245.123 113.016 227.264 154.187 154.858 118.711L244.275 86.7241Z" fill="#373500"/>
<ellipse cx="183.5" cy="57.6248" rx="47.2695" ry="8.14809" transform="rotate(-19.0312 183.5 57.6248)" fill="#373500"/>
<path d="M227.918 42.0158L244.275 86.7243C225.664 117.548 176.909 121.134 154.858 119.074L138.864 73.2754C138.864 73.2754 146.556 72.311 151.223 70.731C156.815 68.8379 164.672 63.8248 164.672 63.8248L203.201 95.0844V48.5585C203.201 48.5585 211.584 49.9457 216.65 48.5585C221.558 47.2145 227.918 42.0158 227.918 42.0158Z" fill="#4B4800"/>
<path d="M193.85 58.5072C191.673 63.2456 194.287 68.2159 194.401 68.4284L194.618 68.8286L195.055 68.711C195.188 68.6866 195.959 68.55 196.305 69.7007C196.617 70.6933 195.596 71.2736 195.174 71.4997C194.608 71.1531 192.585 69.5844 190.111 63.7556C189.993 63.4592 189.874 63.1629 189.755 62.8665C189.755 62.8665 189.014 60.728 188.757 59.7996L187.432 58.5532L187.288 60.3296C187.742 61.1794 188.68 63.2394 188.68 63.2394C188.799 63.5357 188.917 63.8321 189.036 64.1285C191.264 70.0555 190.891 72.6112 190.71 73.2277C190.234 73.3896 189.109 73.639 188.65 72.7053C188.108 71.6332 188.76 71.2002 188.873 71.1264L189.271 70.9101L189.152 70.4706C189.088 70.2385 187.553 64.8361 182.709 62.9062L181.543 62.4843L187.935 78.4633L191.495 77.0394C192.728 79.2678 195.565 80.1669 195.693 80.2018L196.121 80.3458L196.331 79.9464C196.4 79.8331 197.859 77.2154 197.19 74.7612L200.75 73.3373L194.358 57.3583L193.85 58.5072ZM188.002 70.4435C187.565 70.8473 187.159 71.6115 187.456 72.6386L186.891 72.8645L183.592 64.6157C186.352 66.3191 187.612 69.3964 188.002 70.4435ZM190.808 75.5377L191.031 76.0218L188.551 77.0136L187.296 73.8771L187.935 73.6217C188.6 74.5016 189.652 74.5679 190.531 74.4168C190.581 74.9696 190.779 75.4636 190.808 75.5377ZM191.83 75.1005C191.721 74.8289 191.587 74.4239 191.611 74.1278C192.599 73.9621 193.141 74.6048 193.422 75.0939L192.072 75.634L191.83 75.1005ZM194.869 78.6405C194.106 78.2293 193.137 77.5857 192.55 76.6172L193.851 76.0967L194.869 78.6405ZM193.423 73.1741C193.393 73.2431 193.374 73.3369 193.355 73.4306C193.276 73.3762 193.207 73.3464 193.128 73.2919C192.74 73.1036 192.322 72.9843 191.894 72.9834C192.001 72.2532 192.023 71.0984 191.705 69.3062C192.71 70.8234 193.533 71.6691 194.104 72.0996C193.795 72.3951 193.564 72.745 193.423 73.1741ZM195.866 78.2132L194.858 75.6941L196.159 75.1736C196.417 76.2451 196.159 77.3797 195.866 78.2132ZM195.635 73.5784L195.818 74.1069L194.468 74.647C194.334 74.0989 194.283 73.2598 195.112 72.6989C195.344 72.9214 195.526 73.3068 195.635 73.5784ZM195.195 67.5663C194.741 66.5734 193.555 63.4666 194.369 60.3048L197.669 68.5536L197.104 68.7794C196.601 67.8061 195.814 67.5479 195.195 67.5663ZM196.849 73.6945L196.676 73.1907C196.646 73.1166 196.473 72.6129 196.128 72.1778C196.855 71.7154 197.561 70.9174 197.46 69.8116L198.098 69.5563L199.353 72.6928L196.849 73.6945Z" fill="#F2CD13"/>
</g>
</g>
<defs>
<radialGradient id="paint0_radial_2_17" cx="0" cy="0" r="1" gradientUnits="userSpaceOnUse" gradientTransform="translate(31.5961 44.505) rotate(90) scale(44.505 31.5961)">
<stop stop-color="#FFBBBB"/>
<stop offset="1" stop-color="#FFBBBB" stop-opacity="0"/>
</radialGradient>
<radialGradient id="paint1_radial_2_17" cx="0" cy="0" r="1" gradientUnits="userSpaceOnUse" gradientTransform="translate(31.5961 44.505) rotate(90) scale(44.505 31.5961)">
<stop stop-color="#FFBBBB"/>
<stop offset="1" stop-color="#FFBBBB" stop-opacity="0"/>
</radialGradient>
<clipPath id="clip0_2_17">
<rect width="640" height="720" fill="white" transform="translate(0 0.737061)"/>
</clipPath>
<clipPath id="clip1_2_17">
<rect width="637" height="735" fill="white" transform="translate(32 18)"/>
</clipPath>
</defs>
</svg>
