<svg width="233" height="192" viewBox="0 0 233 192" fill="none" xmlns="http://www.w3.org/2000/svg">
<path fill-rule="evenodd" clip-rule="evenodd" d="M188.1 123.205C181.276 146.616 168.344 171.097 144.808 177.714C122.004 184.124 101.458 166.458 81.9724 153.04C63.5517 140.356 43.4672 127.35 39.7108 105.342C35.6823 81.7404 45.4084 57.5321 62.8611 41.0725C80.0387 24.8723 104.326 18.4901 127.629 22.4264C149.782 26.1685 167.39 41.4574 178.922 60.6772C190.332 79.6922 194.305 101.918 188.1 123.205Z" fill="url(#paint0_linear_129203_285)"/>
<path d="M195.596 108.014C92.7851 96.103 98.7714 127.064 114.616 144.034C116.402 154.115 140.674 151.03 152.586 148.227C154.74 144.569 162.439 136.941 176.005 135.695C189.571 134.45 187.71 130.989 185.084 129.414C205.414 125.196 196.862 122.655 190.045 121.912C249.006 119.808 214.916 109.949 195.596 108.014Z" fill="#D9D9D9"/>
<path d="M198.177 109.224C93.3513 98.466 100.432 129.606 117.075 146.52C119.215 156.662 143.772 153.257 155.783 150.286C157.853 146.572 165.427 138.789 179.168 137.368C192.909 135.947 190.907 132.48 188.189 130.925C208.705 126.426 199.936 123.968 192.987 123.302C244.393 116.157 217.866 110.939 198.177 109.224Z" fill="url(#paint1_linear_129203_285)"/>
<line x1="1.5" y1="-1.5" x2="19.0193" y2="-1.5" transform="matrix(-0.937473 0.348297 0.35058 0.936444 105.27 158.522)" stroke="#FF6B0A" stroke-width="3" stroke-linecap="round"/>
<path d="M78.5596 168.322L86.1664 163.922" stroke="#FF6B0A" stroke-width="3" stroke-linecap="round"/>
<path d="M80.354 163.909L86.1569 163.539" stroke="#FF6B0A" stroke-width="3" stroke-linecap="round"/>
<path d="M81.2944 171.183L86.8331 164.029" stroke="#FF6B0A" stroke-width="3" stroke-linecap="round"/>
<path d="M42.5742 91.7982C145.877 98.2134 134.482 127.629 115.871 141.535C112.32 151.142 88.9809 143.823 77.755 138.963C76.2857 134.983 70.0647 126.117 56.9345 122.498C43.8043 118.879 46.2511 115.801 49.1158 114.714C29.8572 106.977 38.725 105.985 45.5663 106.456C-12.0883 93.9832 23.215 90.2942 42.5742 91.7982Z" fill="#D9D9D9"/>
<path d="M39.5745 93.8869C144.655 101.793 132.151 131.192 112.764 144.903C108.854 154.506 85.291 146.822 73.998 141.78C72.6214 137.759 66.5502 128.762 53.279 124.94C40.0077 121.117 42.5944 118.059 45.5467 117.007C26.1548 108.96 35.2221 108.088 42.1797 108.658C-7.14419 92.5574 19.8913 92.102 39.5745 93.8869Z" fill="url(#paint2_linear_129203_285)"/>
<path d="M150.096 130.282C145.652 150.927 115.756 182.205 31.7277 142.155C72.029 125.021 152.125 98.6576 150.096 130.282Z" fill="url(#paint3_linear_129203_285)"/>
<path d="M116.343 76.2348C112.345 66.674 118.01 62.9559 121.342 62.2919C123.841 63.9518 132.739 67.2715 128.34 67.2715C123.941 67.2715 125.174 73.247 126.341 76.2348C147.935 105.316 135.338 121.549 128.84 126.031C121.342 123.043 108.845 116.171 118.843 112.586C131.339 108.104 121.342 88.1858 116.343 76.2348Z" fill="white"/>
<ellipse cx="7.13327" cy="27.7333" rx="7.13327" ry="27.7333" transform="matrix(0.271773 0.962361 -0.9629 0.269858 136.644 135.519)" fill="url(#paint4_radial_129203_285)"/>
<line x1="1.5" y1="-1.5" x2="19.0261" y2="-1.5" transform="matrix(-0.978497 0.206526 0.208017 0.978069 94.9553 157.384)" stroke="#FF6B0A" stroke-width="3" stroke-linecap="round"/>
<path d="M67.2561 164.011L75.3249 160.522" stroke="#FF6B0A" stroke-width="3" stroke-linecap="round"/>
<path d="M69.5544 159.836L75.3612 160.14" stroke="#FF6B0A" stroke-width="3" stroke-linecap="round"/>
<path d="M69.6387 167.169L75.9749 160.706" stroke="#FF6B0A" stroke-width="3" stroke-linecap="round"/>
<path d="M143.757 81.3532C129.581 89.14 123.001 84.5977 121.483 81.3532C111.133 75.2224 113.534 54.2974 131.254 54.2974C148.974 54.2974 161.477 71.6197 143.757 81.3532Z" fill="white"/>
<path d="M134.053 75.6353L136.303 74.1922C140.358 71.591 145.241 70.6029 149.992 71.4225C150.262 71.4691 150.478 71.6706 150.544 71.9361L154.734 88.8404C155.191 90.6851 153.06 92.0653 151.562 90.8946L133.983 77.1579C133.476 76.7613 133.511 75.9828 134.053 75.6353Z" fill="#DF5B04"/>
<path d="M133.653 75.5263L135.492 74.3868C139.855 71.6834 145.049 70.6435 150.12 71.4577C150.319 71.4896 150.497 71.5988 150.616 71.7616L160.742 85.6402C161.959 87.3091 160.158 89.5016 158.284 88.6307L133.756 77.23C133.056 76.9047 132.997 75.9325 133.653 75.5263Z" fill="#FF6B0A"/>
<ellipse cx="1.82166" cy="1.81472" rx="1.82166" ry="1.81472" transform="matrix(-1 0 0 1 151.789 64.8557)" fill="#797979"/>
<ellipse cx="1.82166" cy="1.81472" rx="1.82166" ry="1.81472" transform="matrix(-1 0 0 1 133.075 66.6705)" fill="#797979"/>
<path d="M144.455 44.0059L144.042 41.8382L118.033 46.7517L120.27 58.5067L121.184 58.334L142.876 55.6084L146.28 53.5932L144.724 45.4223L144.852 45.4154L144.833 44.0036L144.455 44.0059Z" fill="#373500"/>
<ellipse cx="13.6145" cy="1.34829" rx="13.6145" ry="1.34829" transform="matrix(-0.98262 0.185627 0.186999 0.98236 144.587 42.6823)" fill="#0C0632"/>
<path d="M146.587 53.5742C155.449 54.083 163.861 65.5074 126.894 59.4773L146.587 53.5742Z" fill="#373500"/>
<path d="M146.649 53.4784C145.27 57.5674 122.906 61.5737 119.884 58.5346L118.11 49.0817C122.055 49.6128 129.071 46.0666 135.137 47.1029L142.886 53.9708L144.833 44.0036L146.649 53.4784Z" fill="#494600"/>
<ellipse cx="13.2319" cy="1.34829" rx="13.2319" ry="1.34829" transform="matrix(-0.98262 0.185627 0.186999 0.98236 143.822 40.6793)" fill="#373500"/>
<ellipse cx="13.4181" cy="1.34829" rx="13.4181" ry="1.34829" transform="matrix(-0.98262 0.185627 0.186999 0.98236 144.201 42.7552)" fill="#373500"/>
<path d="M142.174 47.1288C142.13 47.1795 142.092 47.2193 142.062 47.2625C141.805 47.6141 141.702 47.9578 141.777 48.3709C141.809 48.5459 141.863 48.7195 141.907 48.8906C141.946 49.0419 141.984 49.1904 142.021 49.3427C142.03 49.3824 142.042 49.3966 142.091 49.3864C142.196 49.3615 142.299 49.3765 142.375 49.4518C142.444 49.5173 142.459 49.5975 142.431 49.6796C142.404 49.7645 142.334 49.8176 142.246 49.8494C142.202 49.864 142.166 49.8575 142.127 49.8276C141.828 49.6032 141.598 49.332 141.424 49.018C141.282 48.7576 141.199 48.4777 141.105 48.2045C141.051 48.049 140.989 47.8928 140.941 47.7354C140.909 47.6365 140.87 47.5458 140.806 47.4603C140.742 47.3748 140.661 47.3041 140.556 47.2502C140.507 47.3482 140.491 47.4509 140.507 47.552C140.524 47.6467 140.555 47.7429 140.587 47.8328C140.622 47.9307 140.672 48.0238 140.712 48.1171C140.819 48.3647 140.929 48.6113 141.028 48.8619C141.189 49.2803 141.226 49.7088 141.132 50.1437C141.121 50.2019 141.085 50.229 141.027 50.242C140.88 50.2778 140.734 50.2131 140.686 50.0919C140.642 49.9788 140.711 49.8405 140.849 49.7895C140.898 49.7703 140.895 49.7532 140.874 49.7174C140.77 49.5295 140.668 49.3379 140.567 49.1491C140.45 48.9352 140.347 48.7165 140.164 48.5394C139.921 48.3056 139.652 48.1838 139.306 48.1117C139.281 48.1077 139.256 48.1038 139.22 48.0973C139.229 48.1215 139.236 48.1377 139.242 48.1539C139.651 49.1963 140.043 50.1957 140.452 51.2381C140.476 51.2974 140.476 51.2974 140.538 51.277C140.773 51.2003 141.01 51.1226 141.245 51.0459C141.286 51.0324 141.308 51.0373 141.332 51.0721C141.513 51.3353 141.766 51.5199 142.094 51.6133C142.162 51.6335 142.229 51.6664 142.296 51.693C142.375 51.5093 142.524 51.3512 142.572 51.15C142.612 50.9852 142.63 50.8182 142.601 50.6513C142.596 50.6133 142.61 50.5967 142.646 50.5851C142.886 50.5065 143.124 50.4288 143.364 50.3502C143.406 50.3366 143.421 50.3227 143.404 50.2796C142.993 49.2317 142.597 48.2243 142.186 47.1765C142.19 47.1692 142.186 47.1584 142.174 47.1288ZM142.101 47.6936C142.108 47.6944 142.117 47.6915 142.124 47.6922C142.131 47.7111 142.138 47.73 142.146 47.7488C142.343 48.2525 142.525 48.7158 142.723 49.2195C142.756 49.303 142.756 49.303 142.661 49.3341C142.625 49.3458 142.604 49.3435 142.582 49.3141C142.508 49.2261 142.407 49.1739 142.29 49.1575C142.24 49.1495 142.224 49.1272 142.215 49.0876C142.169 48.893 142.125 48.6947 142.07 48.503C142.015 48.3023 142.005 48.1413 142.045 47.9367C142.059 47.853 142.083 47.7756 142.101 47.6936ZM139.657 48.5016C139.663 48.4996 139.664 48.496 139.67 48.494C139.697 48.5098 139.723 48.5255 139.746 48.5422C139.925 48.6659 140.07 48.7615 140.175 48.943C140.306 49.1738 140.431 49.4065 140.558 49.6383C140.577 49.6687 140.577 49.6931 140.548 49.7236C140.47 49.8068 140.428 49.9029 140.428 50.0152C140.428 50.0668 140.4 50.0882 140.317 50.1C140.267 50.1074 140.272 50.0693 140.262 50.045C140.061 49.5333 139.876 49.0619 139.675 48.5474C139.665 48.5322 139.659 48.516 139.657 48.5016ZM142.375 50.0567C142.388 50.0492 142.405 50.0406 142.424 50.0285C142.596 49.9296 142.709 49.7985 142.7 49.604C142.699 49.5769 142.707 49.5622 142.734 49.5562C142.755 49.5494 142.776 49.5426 142.797 49.5358C142.827 49.5261 142.843 49.533 142.853 49.5599C142.932 49.7619 143.013 49.9667 143.089 50.1696C143.093 50.1804 143.079 50.2124 143.067 50.2163C142.908 50.2714 142.745 50.3248 142.583 50.3745C142.571 50.3784 142.54 50.3673 142.533 50.3575C142.481 50.2591 142.429 50.1606 142.375 50.0567ZM141.103 50.4722C141.134 50.5838 141.159 50.691 141.189 50.7999C141.197 50.8305 141.173 50.8383 141.15 50.8461C140.998 50.8956 140.849 50.9414 140.698 50.9936C140.651 51.0092 140.63 50.9978 140.617 50.9565C140.549 50.775 140.475 50.5955 140.403 50.4124C140.37 50.3289 140.37 50.3289 140.462 50.2988C140.489 50.29 140.513 50.2823 140.533 50.309C140.649 50.4504 140.811 50.4949 140.995 50.4863C141.034 50.4828 141.071 50.4738 141.103 50.4722ZM141.435 49.5068C141.6 49.687 141.762 49.8618 141.964 50.0087C141.894 50.0953 141.829 50.1773 141.76 50.2576C141.751 50.2696 141.719 50.2739 141.701 50.2707C141.607 50.2528 141.517 50.2277 141.423 50.2098C141.394 50.2041 141.382 50.1926 141.388 50.1635C141.433 49.9632 141.438 49.7612 141.431 49.5567C141.435 49.5403 141.434 49.5222 141.435 49.5068ZM142.333 50.6934C142.4 50.8295 142.346 51.1631 142.262 51.2301C142.258 51.2284 142.254 51.2267 142.254 51.2267C142.199 51.0866 142.141 50.9475 142.09 50.8092C142.086 50.7984 142.1 50.7754 142.111 50.7689C142.183 50.7392 142.259 50.7176 142.333 50.6934ZM142.015 51.3171C141.861 51.2915 141.599 51.0518 141.578 50.9372C141.643 50.9159 141.714 50.8926 141.779 50.8712C141.818 50.8586 141.835 50.8682 141.848 50.9005C141.892 51.0136 141.937 51.1268 141.981 51.2399C141.994 51.2632 142.003 51.2874 142.015 51.3171ZM142.145 50.5145C142.107 50.5272 142.066 50.5434 142.026 50.5507C142.014 50.5546 141.982 50.5408 141.981 50.5317C141.953 50.4074 141.996 50.2778 142.11 50.2101C142.134 50.196 142.151 50.1965 142.167 50.2188C142.207 50.2877 142.245 50.3575 142.286 50.429C142.3 50.455 142.286 50.4716 142.259 50.4803C142.223 50.4893 142.184 50.5019 142.145 50.5145ZM141.599 50.6931C141.563 50.7048 141.531 50.7155 141.495 50.7271C141.46 50.7415 141.434 50.7348 141.427 50.6978C141.409 50.6276 141.392 50.5573 141.377 50.4861C141.37 50.4518 141.385 50.4379 141.425 50.4371C141.549 50.4298 141.694 50.5072 141.738 50.6113C141.742 50.6221 141.729 50.6477 141.718 50.6543C141.677 50.6706 141.638 50.6805 141.599 50.6931Z" fill="#FFD500"/>
<ellipse cx="6.75047" cy="7.36373" rx="6.75047" ry="7.36373" transform="matrix(-0.762972 0.646432 0.649301 0.760532 125.831 66.6705)" fill="url(#paint5_radial_129203_285)"/>
<defs>
<linearGradient id="paint0_linear_129203_285" x1="188.752" y1="122.464" x2="43.7262" y2="69.1786" gradientUnits="userSpaceOnUse">
<stop stop-color="#A5DEFF"/>
<stop offset="1" stop-color="#BDE7FF"/>
</linearGradient>
<linearGradient id="paint1_linear_129203_285" x1="159.217" y1="105.85" x2="164.211" y2="150.265" gradientUnits="userSpaceOnUse">
<stop stop-color="white"/>
<stop offset="1" stop-color="#F5F5F5"/>
</linearGradient>
<linearGradient id="paint2_linear_129203_285" x1="78.518" y1="97.4403" x2="65.7609" y2="140.288" gradientUnits="userSpaceOnUse">
<stop stop-color="white"/>
<stop offset="1" stop-color="#F9F9F9"/>
</linearGradient>
<linearGradient id="paint3_linear_129203_285" x1="115.715" y1="119.914" x2="66.072" y2="153.78" gradientUnits="userSpaceOnUse">
<stop stop-color="white"/>
<stop offset="1" stop-color="#F5F5F5"/>
</linearGradient>
<radialGradient id="paint4_radial_129203_285" cx="0" cy="0" r="1" gradientUnits="userSpaceOnUse" gradientTransform="translate(7.13327 27.7333) rotate(90) scale(27.7333 7.13327)">
<stop stop-color="#E8E8E8"/>
<stop offset="1" stop-color="#EFEFEF" stop-opacity="0.5"/>
</radialGradient>
<radialGradient id="paint5_radial_129203_285" cx="0" cy="0" r="1" gradientUnits="userSpaceOnUse" gradientTransform="translate(6.75047 7.36373) rotate(90) scale(7.36373 6.75047)">
<stop stop-color="#FFBBBB"/>
<stop offset="1" stop-color="#FFBBBB" stop-opacity="0"/>
</radialGradient>
</defs>
</svg>
